HIERARCHY
ROOT Pelvis
{
	OFFSET 0.000000 0.000000 0.000000
	CHANNELS 6 Xposition Yposition Zposition Xrotation Yrotation Zrotation
	JOINT LeftUpLeg_virtual
	{
		OFFSET 0.000000 0.000000 0.000000
		CHANNELS 3 Xrotation Yrotation Zrotation
		JOINT LeftUpLeg
		{
			OFFSET 18.735201 -5.666702 -4.541200
			CHANNELS 3 Xrotation Yrotation Zrotation
			JOINT LeftLeg
			{
				OFFSET -0.021200 -31.938179 0.493100
				CHANNELS 3 Xrotation Yrotation Zrotation
				JOINT LeftFoot
				{
					OFFSET 0.021200 -31.938179 -4.336299
					CHANNELS 3 Xrotation Yrotation Zrotation
					JOINT LeftToeBase
					{
						OFFSET 0.943001 -26.722000 15.023500
						CHANNELS 3 Xrotation Yrotation Zrotation
						End Site
						{
							OFFSET 0 0 0
						}
					}
				}
			}
		}
	}
	JOINT RightUpLeg_virtual
	{
		OFFSET 0.000000 0.000000 0.000000
		CHANNELS 3 Xrotation Yrotation Zrotation
		JOINT RightUpLeg
		{
			OFFSET -18.735201 -5.666702 -4.541200
			CHANNELS 3 Xrotation Yrotation Zrotation
			JOINT RightLeg
			{
				OFFSET 0.018946 -31.938133 0.493100
				CHANNELS 3 Xrotation Yrotation Zrotation
				JOINT RightFoot
				{
					OFFSET -0.018946 -31.938126 -4.336299
					CHANNELS 3 Xrotation Yrotation Zrotation
					JOINT RightToeBase
					{
						OFFSET -0.943001 -26.722004 15.023500
						CHANNELS 3 Xrotation Yrotation Zrotation
						End Site
						{
							OFFSET 0 0 0
						}
					}
				}
			}
		}
	}
	JOINT Hips_virtual
	{
		OFFSET 0.000000 0.000000 0.000000
		CHANNELS 3 Xrotation Yrotation Zrotation
		JOINT Hips
		{
			OFFSET -0.000000 -0.000000 -0.000000
			CHANNELS 3 Xrotation Yrotation Zrotation
			JOINT Spine
			{
				OFFSET 0.000000 10.199997 -0.299500
				CHANNELS 3 Xrotation Yrotation Zrotation
				JOINT Spine1
				{
					OFFSET 0.000000 11.900002 -1.516600
					CHANNELS 3 Xrotation Yrotation Zrotation
					JOINT Spine2
					{
						OFFSET 0.000000 13.600006 -2.842500
						CHANNELS 3 Xrotation Yrotation Zrotation
						JOINT Neck_virtual
						{
							OFFSET 0.000000 0.000000 0.000000
							CHANNELS 3 Xrotation Yrotation Zrotation
							JOINT Neck
							{
								OFFSET 0.000000 9.624100 -2.890100
								CHANNELS 3 Xrotation Yrotation Zrotation
								JOINT Head
								{
									OFFSET 0.000000 14.068802 -1.351900
									CHANNELS 3 Xrotation Yrotation Zrotation
									End Site
									{
										OFFSET 0 0 0
									}
								}
							}
						}
						JOINT LeftShoulder_virtual
						{
							OFFSET 0.000000 0.000000 0.000000
							CHANNELS 3 Xrotation Yrotation Zrotation
							JOINT LeftShoulder
							{
								OFFSET 15.263000 10.923401 -0.547700
								CHANNELS 3 Xrotation Yrotation Zrotation
								JOINT LeftArm
								{
									OFFSET 25.438599 -2.830597 -13.032500
									CHANNELS 3 Xrotation Yrotation Zrotation
									JOINT LeftForeArm
									{
										OFFSET 29.960503 0.000000 0.000000
										CHANNELS 3 Xrotation Yrotation Zrotation
										JOINT LeftHand
										{
											OFFSET 27.849251 0.000000 0.000000
											CHANNELS 3 Xrotation Yrotation Zrotation
											End Site
											{
												OFFSET 0 0 0
											}
										}
									}
								}
							}
						}
						JOINT RightShoulder_virtual
						{
							OFFSET 0.000000 0.000000 0.000000
							CHANNELS 3 Xrotation Yrotation Zrotation
							JOINT RightShoulder
							{
								OFFSET -15.263000 10.923401 -0.547700
								CHANNELS 3 Xrotation Yrotation Zrotation
								JOINT RightArm
								{
									OFFSET -25.438599 -2.830597 -13.032500
									CHANNELS 3 Xrotation Yrotation Zrotation
									JOINT RightForeArm
									{
										OFFSET -29.960503 0.000000 0.000000
										CHANNELS 3 Xrotation Yrotation Zrotation
										JOINT RightHand
										{
											OFFSET -27.849251 0.000000 0.000000
											CHANNELS 3 Xrotation Yrotation Zrotation
											End Site
											{
												OFFSET 0 0 0
											}
										}
									}
								}
							}
						}
					}
				}
			}
		}
	}
}
MOTION
Frames: 4
Frame Time: 0.03333333
-3.573135 83.594063 0.505863 0.000000 0.000000 0.000000 -5.005295 -59.071909 -2.579351 -37.543849 11.039488 36.448987 47.090319 -11.851740 -11.502184 -11.146193 -4.528296 -10.140153 0.000000 0.000000 0.000000 -5.485372 -57.749236 -3.204892 -29.574029 -7.147296 -26.065662 46.887667 5.408907 -6.433855 -19.220887 3.464543 25.463905 0.000000 0.000000 0.000000 -5.252666 -57.601874 -2.427059 -0.604085 -0.832863 -1.076968 11.568650 -0.389471 -1.573094 7.186483 0.686562 -4.923786 0.000000 0.000000 0.000000 7.124905 0.258967 -4.791411 -4.797396 5.521887 1.247502 0.000000 0.000000 0.000000 7.257125 0.266856 -5.321843 -5.242288 -14.014067 0.348352 -25.045457 5.175051 -38.326234 3.154056 -46.959664 2.497714 0.000000 0.000000 0.000000 7.296878 0.707066 -4.858980 -4.870402 12.243413 0.038825 -40.398592 -28.381755 25.603956 -154.416548 67.950806 156.371922 0.000000 0.000000 0.000000 
-3.575746 83.617142 0.580826 0.000000 0.000000 0.000000 -4.684501 -58.998785 -2.091423 -36.935348 11.029739 35.719178 46.422689 -11.357466 -11.516639 -10.823731 -4.333381 -10.279844 0.000000 0.000000 0.000000 -5.068001 -57.687976 -2.621878 -29.862666 -6.881345 -26.555559 47.257167 5.592953 -6.485812 -19.685085 3.359583 25.620769 0.000000 0.000000 0.000000 -4.897716 -57.706008 -1.920266 -0.616716 -0.840432 -1.139161 11.632692 -0.333206 -1.410351 7.471508 0.750379 -4.778051 0.000000 0.000000 0.000000 7.505453 0.306452 -4.656323 -4.566851 5.526274 1.421391 0.000000 0.000000 0.000000 7.510185 0.323055 -5.212713 -5.411217 -14.032825 -0.748560 -23.788924 5.922055 -38.594401 3.660837 -47.346014 2.794811 0.000000 0.000000 0.000000 7.535651 0.766081 -4.719049 -4.949528 12.524712 0.631256 -41.270407 -28.013017 24.331647 -155.225106 66.763460 157.502783 0.000000 0.000000 0.000000 
-3.636779 83.742477 0.662823 0.000000 0.000000 0.000000 -4.029877 -58.762289 -1.273922 -36.550883 11.042538 34.900163 45.731084 -10.823958 -11.578071 -10.424130 -4.072537 -10.411332 0.000000 0.000000 0.000000 -4.382902 -57.526100 -1.731388 -30.230322 -6.815931 -27.156103 47.484957 5.719979 -6.414852 -19.886366 3.183269 25.752791 0.000000 0.000000 0.000000 -4.179640 -57.729415 -1.068281 -0.595387 -0.893376 -1.212616 11.707452 -0.261751 -1.317233 7.694876 0.801416 -4.649336 0.000000 0.000000 0.000000 7.802660 0.353742 -4.552187 -4.383825 5.526081 1.555809 0.000000 0.000000 0.000000 7.744243 0.374774 -5.107203 -5.544588 -13.973240 -1.685584 -23.007660 6.353917 -38.718215 3.866600 -46.928334 2.880958 0.000000 0.000000 0.000000 7.754409 0.819157 -4.594288 -5.071082 12.466520 1.133450 -41.517011 -27.050698 24.031838 -155.412950 66.223547 157.968711 0.000000 0.000000 0.000000 
-3.741266 83.877853 0.754921 0.000000 0.000000 0.000000 -3.248959 -58.461310 -0.289638 -36.395691 11.015782 34.093098 45.247377 -10.394879 -11.619042 -10.242558 -3.809454 -10.571766 0.000000 0.000000 0.000000 -3.581132 -57.296968 -0.686955 -30.612372 -6.842621 -27.774643 47.676322 5.769236 -6.289728 -20.017930 2.954095 25.857788 0.000000 0.000000 0.000000 -3.297173 -57.681139 -0.035665 -0.597815 -0.984437 -1.299363 11.804529 -0.193869 -1.318110 7.883667 0.829750 -4.571568 0.000000 0.000000 0.000000 8.032353 0.379939 -4.506964 -4.255791 5.525540 1.638866 0.000000 0.000000 0.000000 7.980350 0.403128 -5.030798 -5.615793 -13.918217 -2.245461 -22.798786 6.492447 -38.575836 3.740010 -45.760615 2.719900 0.000000 0.000000 0.000000 7.961073 0.843003 -4.523785 -5.198285 12.145927 1.391996 -41.404026 -25.948071 24.431496 -155.345495 66.156481 158.122267 0.000000 0.000000 0.000000 
